<mxfile host="app.diagrams.net" agent="Mozilla/5.0 (Windows NT 10.0; Win64; x64) AppleWebKit/537.36 (KHTML, like Gecko) Chrome/136.0.0.0 Safari/537.36" version="27.0.3">
  <diagram name="Page-1" id="VcuLmdytVTQZ5WLBHurv">
    <mxGraphModel dx="1042" dy="562" grid="0" gridSize="10" guides="1" tooltips="1" connect="1" arrows="1" fold="1" page="1" pageScale="1" pageWidth="850" pageHeight="1100" math="0" shadow="0">
      <root>
        <mxCell id="0" />
        <mxCell id="1" parent="0" />
        <mxCell id="GmY9_GItGqDkAXkPfu6z-1" value="&lt;div&gt;Add Car&lt;/div&gt;" style="ellipse;whiteSpace=wrap;html=1;" vertex="1" parent="1">
          <mxGeometry x="112" y="50" width="210" height="80" as="geometry" />
        </mxCell>
        <mxCell id="GmY9_GItGqDkAXkPfu6z-3" value="Delete Car" style="ellipse;whiteSpace=wrap;html=1;" vertex="1" parent="1">
          <mxGeometry x="112" y="236" width="210" height="80" as="geometry" />
        </mxCell>
        <mxCell id="GmY9_GItGqDkAXkPfu6z-4" value="Approve/reject&lt;div&gt;bookings&lt;/div&gt;" style="ellipse;whiteSpace=wrap;html=1;" vertex="1" parent="1">
          <mxGeometry x="112" y="331" width="210" height="80" as="geometry" />
        </mxCell>
        <mxCell id="GmY9_GItGqDkAXkPfu6z-5" value="Register" style="ellipse;whiteSpace=wrap;html=1;" vertex="1" parent="1">
          <mxGeometry x="409" y="50" width="210" height="80" as="geometry" />
        </mxCell>
        <mxCell id="GmY9_GItGqDkAXkPfu6z-7" value="View all bookings" style="ellipse;whiteSpace=wrap;html=1;" vertex="1" parent="1">
          <mxGeometry x="409" y="141" width="210" height="80" as="geometry" />
        </mxCell>
        <mxCell id="GmY9_GItGqDkAXkPfu6z-8" value="Login" style="ellipse;whiteSpace=wrap;html=1;" vertex="1" parent="1">
          <mxGeometry x="409" y="236" width="210" height="80" as="geometry" />
        </mxCell>
        <mxCell id="GmY9_GItGqDkAXkPfu6z-9" value="View a car&lt;div&gt;(specify duration)&lt;/div&gt;" style="ellipse;whiteSpace=wrap;html=1;" vertex="1" parent="1">
          <mxGeometry x="409" y="374" width="210" height="80" as="geometry" />
        </mxCell>
        <mxCell id="GmY9_GItGqDkAXkPfu6z-10" value="" style="endArrow=none;html=1;rounded=0;entryX=0;entryY=0.5;entryDx=0;entryDy=0;exitX=1;exitY=0.5;exitDx=0;exitDy=0;" edge="1" parent="1" source="GmY9_GItGqDkAXkPfu6z-2" target="GmY9_GItGqDkAXkPfu6z-5">
          <mxGeometry width="50" height="50" relative="1" as="geometry">
            <mxPoint x="430" y="180" as="sourcePoint" />
            <mxPoint x="480" y="130" as="targetPoint" />
          </mxGeometry>
        </mxCell>
        <mxCell id="GmY9_GItGqDkAXkPfu6z-11" value="" style="endArrow=none;html=1;rounded=0;entryX=0;entryY=0.5;entryDx=0;entryDy=0;exitX=0.956;exitY=0.341;exitDx=0;exitDy=0;exitPerimeter=0;" edge="1" parent="1" source="GmY9_GItGqDkAXkPfu6z-3" target="GmY9_GItGqDkAXkPfu6z-7">
          <mxGeometry width="50" height="50" relative="1" as="geometry">
            <mxPoint x="425" y="290" as="sourcePoint" />
            <mxPoint x="510.00000000000387" y="169.9999999999999" as="targetPoint" />
          </mxGeometry>
        </mxCell>
        <mxCell id="GmY9_GItGqDkAXkPfu6z-12" value="Admin" style="shape=umlActor;verticalLabelPosition=bottom;verticalAlign=top;html=1;outlineConnect=0;" vertex="1" parent="1">
          <mxGeometry x="20" y="161" width="30" height="60" as="geometry" />
        </mxCell>
        <mxCell id="GmY9_GItGqDkAXkPfu6z-17" value="" style="endArrow=none;html=1;rounded=0;exitX=1;exitY=0.5;exitDx=0;exitDy=0;entryX=0;entryY=0.5;entryDx=0;entryDy=0;" edge="1" parent="1" source="GmY9_GItGqDkAXkPfu6z-4" target="GmY9_GItGqDkAXkPfu6z-8">
          <mxGeometry width="50" height="50" relative="1" as="geometry">
            <mxPoint x="430" y="390" as="sourcePoint" />
            <mxPoint x="480" y="340" as="targetPoint" />
          </mxGeometry>
        </mxCell>
        <mxCell id="GmY9_GItGqDkAXkPfu6z-18" value="" style="endArrow=none;html=1;rounded=0;exitX=1;exitY=0.5;exitDx=0;exitDy=0;entryX=0;entryY=0.5;entryDx=0;entryDy=0;" edge="1" parent="1" source="GmY9_GItGqDkAXkPfu6z-4" target="GmY9_GItGqDkAXkPfu6z-9">
          <mxGeometry width="50" height="50" relative="1" as="geometry">
            <mxPoint x="440" y="390" as="sourcePoint" />
            <mxPoint x="490" y="340" as="targetPoint" />
          </mxGeometry>
        </mxCell>
        <mxCell id="GmY9_GItGqDkAXkPfu6z-22" value="System" style="text;html=1;align=center;verticalAlign=middle;whiteSpace=wrap;rounded=0;" vertex="1" parent="1">
          <mxGeometry x="425" y="10" width="60" height="30" as="geometry" />
        </mxCell>
        <mxCell id="GmY9_GItGqDkAXkPfu6z-23" value="" style="endArrow=none;html=1;rounded=0;entryX=0;entryY=0.5;entryDx=0;entryDy=0;exitX=0.5;exitY=0.5;exitDx=0;exitDy=0;exitPerimeter=0;" edge="1" parent="1" source="GmY9_GItGqDkAXkPfu6z-12" target="GmY9_GItGqDkAXkPfu6z-1">
          <mxGeometry width="50" height="50" relative="1" as="geometry">
            <mxPoint x="90" y="150" as="sourcePoint" />
            <mxPoint x="217.78999999999996" y="68.99999999999989" as="targetPoint" />
          </mxGeometry>
        </mxCell>
        <mxCell id="GmY9_GItGqDkAXkPfu6z-24" value="" style="endArrow=none;html=1;rounded=0;entryX=0.078;entryY=0.264;entryDx=0;entryDy=0;entryPerimeter=0;exitX=0.5;exitY=0.5;exitDx=0;exitDy=0;exitPerimeter=0;" edge="1" parent="1" source="GmY9_GItGqDkAXkPfu6z-2">
          <mxGeometry width="50" height="50" relative="1" as="geometry">
            <mxPoint x="73" y="130" as="sourcePoint" />
            <mxPoint x="216.01999999999998" y="165.76" as="targetPoint" />
          </mxGeometry>
        </mxCell>
        <mxCell id="GmY9_GItGqDkAXkPfu6z-25" value="" style="endArrow=none;html=1;rounded=0;entryX=0;entryY=0.5;entryDx=0;entryDy=0;exitX=0.5;exitY=0.5;exitDx=0;exitDy=0;exitPerimeter=0;" edge="1" parent="1" source="GmY9_GItGqDkAXkPfu6z-12" target="GmY9_GItGqDkAXkPfu6z-3">
          <mxGeometry width="50" height="50" relative="1" as="geometry">
            <mxPoint x="95" y="150" as="sourcePoint" />
            <mxPoint x="217.20000000000005" y="269.01" as="targetPoint" />
          </mxGeometry>
        </mxCell>
        <mxCell id="GmY9_GItGqDkAXkPfu6z-27" value="" style="endArrow=none;html=1;rounded=0;exitX=0.5;exitY=0.5;exitDx=0;exitDy=0;exitPerimeter=0;entryX=0;entryY=0.5;entryDx=0;entryDy=0;" edge="1" parent="1" source="GmY9_GItGqDkAXkPfu6z-12" target="GmY9_GItGqDkAXkPfu6z-4">
          <mxGeometry width="50" height="50" relative="1" as="geometry">
            <mxPoint x="64" y="221" as="sourcePoint" />
            <mxPoint x="216" y="373" as="targetPoint" />
          </mxGeometry>
        </mxCell>
        <mxCell id="GmY9_GItGqDkAXkPfu6z-29" value="Customer" style="shape=umlActor;verticalLabelPosition=bottom;verticalAlign=top;html=1;outlineConnect=0;" vertex="1" parent="1">
          <mxGeometry x="793" y="242" width="30" height="60" as="geometry" />
        </mxCell>
        <mxCell id="GmY9_GItGqDkAXkPfu6z-32" value="" style="endArrow=none;html=1;rounded=0;entryX=0.5;entryY=0.5;entryDx=0;entryDy=0;entryPerimeter=0;exitX=1;exitY=0.5;exitDx=0;exitDy=0;" edge="1" parent="1" source="GmY9_GItGqDkAXkPfu6z-9" target="GmY9_GItGqDkAXkPfu6z-29">
          <mxGeometry width="50" height="50" relative="1" as="geometry">
            <mxPoint x="725.19" y="464.8899999999999" as="sourcePoint" />
            <mxPoint x="780" y="397" as="targetPoint" />
          </mxGeometry>
        </mxCell>
        <mxCell id="GmY9_GItGqDkAXkPfu6z-33" value="" style="endArrow=none;html=1;rounded=0;entryX=0.5;entryY=0.5;entryDx=0;entryDy=0;entryPerimeter=0;exitX=1;exitY=0.5;exitDx=0;exitDy=0;" edge="1" parent="1" source="GmY9_GItGqDkAXkPfu6z-8" target="GmY9_GItGqDkAXkPfu6z-29">
          <mxGeometry width="50" height="50" relative="1" as="geometry">
            <mxPoint x="716" y="368" as="sourcePoint" />
            <mxPoint x="830" y="407" as="targetPoint" />
          </mxGeometry>
        </mxCell>
        <mxCell id="GmY9_GItGqDkAXkPfu6z-36" value="" style="endArrow=none;html=1;rounded=0;entryX=1;entryY=0.5;entryDx=0;entryDy=0;exitX=0.5;exitY=0.5;exitDx=0;exitDy=0;exitPerimeter=0;" edge="1" parent="1" source="GmY9_GItGqDkAXkPfu6z-29" target="GmY9_GItGqDkAXkPfu6z-7">
          <mxGeometry width="50" height="50" relative="1" as="geometry">
            <mxPoint x="441" y="391" as="sourcePoint" />
            <mxPoint x="491" y="341" as="targetPoint" />
          </mxGeometry>
        </mxCell>
        <mxCell id="GmY9_GItGqDkAXkPfu6z-37" value="" style="endArrow=none;html=1;rounded=0;entryX=1;entryY=0.5;entryDx=0;entryDy=0;exitX=0.5;exitY=0.5;exitDx=0;exitDy=0;exitPerimeter=0;" edge="1" parent="1" source="GmY9_GItGqDkAXkPfu6z-29" target="GmY9_GItGqDkAXkPfu6z-5">
          <mxGeometry width="50" height="50" relative="1" as="geometry">
            <mxPoint x="460" y="394" as="sourcePoint" />
            <mxPoint x="491" y="341" as="targetPoint" />
          </mxGeometry>
        </mxCell>
        <mxCell id="GmY9_GItGqDkAXkPfu6z-41" value="" style="endArrow=none;html=1;rounded=0;entryX=0;entryY=0.5;entryDx=0;entryDy=0;exitX=0.5;exitY=0.5;exitDx=0;exitDy=0;exitPerimeter=0;" edge="1" parent="1" source="GmY9_GItGqDkAXkPfu6z-12" target="GmY9_GItGqDkAXkPfu6z-2">
          <mxGeometry width="50" height="50" relative="1" as="geometry">
            <mxPoint x="35" y="191" as="sourcePoint" />
            <mxPoint x="216.01999999999998" y="165.76" as="targetPoint" />
          </mxGeometry>
        </mxCell>
        <mxCell id="GmY9_GItGqDkAXkPfu6z-2" value="Update Car" style="ellipse;whiteSpace=wrap;html=1;" vertex="1" parent="1">
          <mxGeometry x="112" y="141" width="210" height="80" as="geometry" />
        </mxCell>
        <mxCell id="GmY9_GItGqDkAXkPfu6z-42" value="" style="rounded=0;whiteSpace=wrap;html=1;fillColor=none;" vertex="1" parent="1">
          <mxGeometry x="59" y="4" width="717" height="460" as="geometry" />
        </mxCell>
        <mxCell id="GmY9_GItGqDkAXkPfu6z-43" value="&amp;lt;&amp;lt;include&amp;gt;&amp;gt;" style="endArrow=open;endSize=12;dashed=1;html=1;rounded=0;exitX=0.5;exitY=0;exitDx=0;exitDy=0;entryX=0.5;entryY=1;entryDx=0;entryDy=0;" edge="1" parent="1" source="GmY9_GItGqDkAXkPfu6z-9" target="GmY9_GItGqDkAXkPfu6z-8">
          <mxGeometry width="160" relative="1" as="geometry">
            <mxPoint x="488" y="471" as="sourcePoint" />
            <mxPoint x="433" y="246" as="targetPoint" />
          </mxGeometry>
        </mxCell>
        <mxCell id="GmY9_GItGqDkAXkPfu6z-45" value="&amp;lt;&amp;lt;exclude&amp;gt;&amp;gt;" style="endArrow=open;endSize=12;dashed=1;html=1;rounded=0;exitX=1;exitY=0.5;exitDx=0;exitDy=0;entryX=0;entryY=0.5;entryDx=0;entryDy=0;" edge="1" parent="1" source="GmY9_GItGqDkAXkPfu6z-4" target="GmY9_GItGqDkAXkPfu6z-7">
          <mxGeometry width="160" relative="1" as="geometry">
            <mxPoint x="347" y="217" as="sourcePoint" />
            <mxPoint x="507" y="217" as="targetPoint" />
          </mxGeometry>
        </mxCell>
        <mxCell id="GmY9_GItGqDkAXkPfu6z-46" value="&amp;lt;&amp;lt;include&amp;gt;&amp;gt;" style="endArrow=open;endSize=12;dashed=1;html=1;rounded=0;exitX=1;exitY=0.5;exitDx=0;exitDy=0;entryX=1;entryY=0.5;entryDx=0;entryDy=0;" edge="1" parent="1" source="GmY9_GItGqDkAXkPfu6z-5" target="GmY9_GItGqDkAXkPfu6z-8">
          <mxGeometry width="160" relative="1" as="geometry">
            <mxPoint x="347" y="217" as="sourcePoint" />
            <mxPoint x="507" y="217" as="targetPoint" />
            <Array as="points">
              <mxPoint x="755" y="154" />
            </Array>
          </mxGeometry>
        </mxCell>
      </root>
    </mxGraphModel>
  </diagram>
</mxfile>
